# File created by Blade
# Date/Time:  Tue Jan 27 20:02:37 2015
# Frame Rate: 120.000 fps
#------------------------------------------------------
:FULLY-SPECIFIED
:DEGREES
2243
root 8.398119 32.670329 4.388266 2.699855 -32.494690 -16.299221
Spine 7.617724 18.149531 10.950162
Head 11.298395 1.967618 1.727020
LeftShoulder -17.438998 4.276043 27.359582
LeftArm -9.248136 -7.913394 -82.404388
LeftForeArm -17.178577 -0.000000 123.880113
LeftHand 10.634143 -0.000000 -19.419919
LeftHandThumb1 -26.253704 0.000000 33.147579
RightShoulder -18.783239 -19.764974 -23.007157
RightArm 3.237585 -13.173826 89.750791
RightForeArm -12.510710 -0.000000 8.979226
RightHand 19.044926 0.000000 6.549528
RightHandThumb1 -24.326973 -0.000000 -32.862282
LeftUpLeg 11.416330 18.725268 2.729630
LeftLeg -2.560586 -0.000000 0.000000
LeftFoot -25.028174 30.622152 -18.998514
LeftToeBase 19.548397 -0.000000 -0.000000
RightUpLeg -62.440489 -61.562652 -6.260072
RightLeg 99.871057 -0.000000 -0.000000
RightFoot 26.872070 -27.109410 19.559484
RightToeBase 20.228859 -0.000000 -0.000000
2244
root 8.398317 32.671667 4.385718 2.733418 -32.343348 -16.301433
Spine 7.626376 18.011955 10.946690
Head 11.291414 2.048685 1.773580
LeftShoulder -17.433108 4.185371 27.350777
LeftArm -9.247783 -7.895000 -82.273344
LeftForeArm -17.202289 -0.000000 123.810958
LeftHand 10.681167 -0.000000 -19.300531
LeftHandThumb1 -26.253704 0.000000 33.147579
RightShoulder -18.782117 -19.768464 -23.024532
RightArm 3.236947 -13.198519 89.743575
RightForeArm -12.634551 -0.000000 8.949913
RightHand 18.896738 -0.000000 6.457101
RightHandThumb1 -24.326973 -0.000000 -32.862282
LeftUpLeg 11.369535 18.673356 2.730048
LeftLeg -2.612405 -0.000000 0.000000
LeftFoot -24.894969 30.616953 -18.829984
LeftToeBase 19.549849 -0.000000 -0.000000
RightUpLeg -62.045437 -61.480919 -6.400902
RightLeg 99.830462 -0.000000 -0.000000
RightFoot 26.802977 -27.113424 19.850767
RightToeBase 20.278650 -0.000000 -0.000000
2245
root 8.397914 32.674082 4.382787 2.772535 -32.170488 -16.320041
Spine 7.616834 17.875948 10.948334
Head 11.319484 2.125163 1.848859
LeftShoulder -17.398552 4.150635 27.368280
LeftArm -9.195224 -7.861158 -82.220247
LeftForeArm -17.144974 -0.000000 123.739299
LeftHand 10.751858 -0.000000 -19.231874
LeftHandThumb1 -26.253704 0.000000 33.147579
RightShoulder -18.776746 -19.780818 -23.009809
RightArm 3.261072 -13.179603 89.700200
RightForeArm -12.582408 -0.000000 8.868620
RightHand 19.053077 -0.000000 6.836377
RightHandThumb1 -24.326973 -0.000000 -32.862282
LeftUpLeg 11.331571 18.655108 2.754850
LeftLeg -2.687476 -0.000000 0.000000
LeftFoot -24.794789 30.573424 -18.702174
LeftToeBase 19.493103 -0.000000 -0.000000
RightUpLeg -61.595708 -61.406228 -6.545994
RightLeg 99.770424 -0.000000 -0.000000
RightFoot 26.967734 -26.973141 19.553738
RightToeBase 20.239033 -0.000000 -0.000000
2246
root 8.398231 32.675006 4.381513 2.791102 -31.982210 -16.304781
Spine 7.607499 17.724552 10.917589
Head 11.324096 2.229228 1.921520
LeftShoulder -17.356995 4.136599 27.400228
LeftArm -9.145470 -7.805732 -82.192558
LeftForeArm -17.091633 0.000000 123.682422
LeftHand 10.764193 -0.000000 -19.123900
LeftHandThumb1 -26.253704 0.000000 33.147579
RightShoulder -18.794363 -19.821145 -23.000726
RightArm 3.339282 -13.277412 89.688860
RightForeArm -12.666826 -0.000000 8.794274
RightHand 18.991812 -0.000000 6.858180
RightHandThumb1 -24.326973 -0.000000 -32.862282
LeftUpLeg 11.290651 18.630890 2.750403
LeftLeg -2.747757 -0.000000 0.000000
LeftFoot -24.622727 30.524062 -18.491296
LeftToeBase 19.380912 -0.000000 -0.000000
RightUpLeg -61.081034 -61.313524 -6.819794
RightLeg 99.745186 -0.000000 -0.000000
RightFoot 26.888400 -27.018608 19.717053
RightToeBase 21.175662 -0.000000 -0.000000
2247
root 8.402286 32.675784 4.380343 2.820132 -31.762532 -16.274138
Spine 7.583816 17.545820 10.875693
Head 11.275955 2.251407 1.984757
LeftShoulder -17.327548 4.110545 27.431233
LeftArm -9.116808 -7.774671 -82.175000
LeftForeArm -17.208620 -0.000000 123.647466
LeftHand 10.660248 0.000000 -19.244627
LeftHandThumb1 -26.253704 0.000000 33.147579
RightShoulder -18.802055 -19.792136 -23.000745
RightArm 3.334356 -13.245795 89.669743
RightForeArm -12.758000 -0.000000 8.752619
RightHand 19.020003 0.000000 7.020662
RightHandThumb1 -24.326973 -0.000000 -32.862282
LeftUpLeg 11.212095 18.558715 2.718201
LeftLeg -2.787992 -0.000000 0.000000
LeftFoot -24.466142 30.474491 -18.308967
LeftToeBase 19.265784 -0.000000 -0.000000
RightUpLeg -60.602362 -61.282155 -7.054140
RightLeg 99.697964 -0.000000 -0.000000
RightFoot 27.028332 -26.904981 19.261391
RightToeBase 20.614069 -0.000000 -0.000000
2248
root 8.403117 32.677504 4.378426 2.847372 -31.512835 -16.258604
Spine 7.568332 17.349684 10.842694
Head 11.203262 2.262626 2.053975
LeftShoulder -17.315094 4.067258 27.464128
LeftArm -9.084406 -7.681599 -82.170230
LeftForeArm -17.225762 0.000000 123.618076
LeftHand 10.708228 -0.000000 -19.236076
LeftHandThumb1 -26.253704 0.000000 33.147579
RightShoulder -18.833461 -19.827185 -22.964386
RightArm 3.414047 -13.200582 89.632772
RightForeArm -12.815538 -0.000000 8.698719
RightHand 19.049255 -0.000000 7.038583
RightHandThumb1 -24.326973 -0.000000 -32.862282
LeftUpLeg 11.133029 18.477754 2.714695
LeftLeg -2.809586 -0.000000 0.000000
LeftFoot -24.344139 30.398438 -18.159663
LeftToeBase 19.221568 -0.000000 -0.000000
RightUpLeg -60.019857 -61.265370 -7.371491
RightLeg 99.673442 -0.000000 -0.000000
RightFoot 26.940539 -26.908973 19.329463
RightToeBase 21.236464 -0.000000 -0.000000
